<svg width="232" height="232" viewBox="0 0 1024 1024" fill="none" xmlns="http://www.w3.org/2000/svg">
<g filter="url(#filter0_dii_482_2)">
<path fill-rule="evenodd" clip-rule="evenodd" d="M924 356.627C924 346.845 924.004 337.062 923.944 327.279C923.895 319.038 923.8 310.799 923.576 302.562C923.092 284.609 922.033 266.502 918.84 248.749C915.602 230.741 910.314 213.98 901.981 197.617C893.789 181.534 883.088 166.817 870.32 154.058C857.555 141.299 842.834 130.605 826.746 122.418C810.366 114.083 793.587 108.797 775.558 105.56C757.803 102.372 739.691 101.315 721.738 100.83C713.495 100.607 705.253 100.513 697.008 100.462C687.22 100.402 677.432 100.407 667.644 100.407L553.997 100H468.997L357.361 100.407C347.554 100.407 337.747 100.402 327.94 100.462C319.678 100.513 311.42 100.607 303.161 100.83C285.167 101.315 267.014 102.373 249.217 105.565C231.164 108.801 214.36 114.085 197.958 122.414C181.835 130.602 167.083 141.297 154.291 154.058C141.501 166.816 130.78 181.53 122.573 197.61C114.217 213.981 108.919 230.752 105.673 248.77C102.477 266.516 101.418 284.617 100.931 302.562C100.709 310.8 100.613 319.039 100.563 327.279C100.503 337.063 100 349.216 100 358.999L100.003 469.089L100 554.998L100.508 667.427C100.508 677.223 100.504 687.019 100.563 696.815C100.613 705.067 100.709 713.317 100.932 721.566C101.418 739.542 102.479 757.675 105.678 775.452C108.923 793.484 114.22 810.269 122.569 826.653C130.777 842.759 141.5 857.495 154.291 870.272C167.082 883.049 181.83 893.757 197.95 901.956C214.362 910.302 231.174 915.595 249.238 918.836C267.027 922.029 285.174 923.088 303.161 923.573C311.42 923.796 319.679 923.891 327.941 923.941C337.748 924.001 347.554 923.997 357.361 923.997L470.006 924H555.217L667.644 923.996C677.432 923.996 687.22 924.001 697.008 923.941C705.253 923.891 713.495 923.796 721.738 923.573C739.698 923.087 757.816 922.027 775.579 918.832C793.597 915.591 810.368 910.3 826.739 901.959C842.831 893.761 857.554 883.051 870.32 870.272C883.086 857.497 893.786 842.763 901.978 826.66C910.316 810.268 915.604 793.475 918.844 775.431C922.034 757.661 923.092 739.535 923.577 721.566C923.8 713.316 923.895 705.066 923.944 696.815C924.005 687.019 924 677.223 924 667.427C924 667.427 923.994 556.983 923.994 554.998V468.999C923.994 467.533 924 356.627 924 356.627Z" fill="url(#paint0_linear_482_2)"/>
</g>
<g opacity="0.4" filter="url(#filter1_dii_482_2)">
<path d="M192 396.8C192 325.113 192 289.27 205.951 261.889C218.223 237.804 237.804 218.223 261.889 205.951C289.27 192 325.113 192 396.8 192H639.2C710.887 192 746.73 192 774.111 205.951C798.196 218.223 817.777 237.804 830.049 261.889C844 289.27 844 325.113 844 396.8V639.2C844 710.887 844 746.73 830.049 774.111C817.777 798.196 798.196 817.777 774.111 830.049C746.73 844 710.887 844 639.2 844H396.8C325.113 844 289.27 844 261.889 830.049C237.804 817.777 218.223 798.196 205.951 774.111C192 746.73 192 710.887 192 639.2V396.8Z" fill="url(#paint1_linear_482_2)" shape-rendering="crispEdges"/>
</g>
<g opacity="0.7" filter="url(#filter2_di_482_2)">
<path d="M332 536.8C332 465.113 332 429.27 345.951 401.889C358.223 377.804 377.804 358.223 401.889 345.951C429.27 332 465.113 332 536.8 332H639.2C710.887 332 746.73 332 774.111 345.951C798.196 358.223 817.777 377.804 830.049 401.889C844 429.27 844 465.113 844 536.8V639.2C844 710.887 844 746.73 830.049 774.111C817.777 798.196 798.196 817.777 774.111 830.049C746.73 844 710.887 844 639.2 844H536.8C465.113 844 429.27 844 401.889 830.049C377.804 817.777 358.223 798.196 345.951 774.111C332 746.73 332 710.887 332 639.2V536.8Z" fill="url(#paint2_linear_482_2)" shape-rendering="crispEdges"/>
</g>
<g opacity="0.7" filter="url(#filter3_di_482_2)">
<path d="M472 658C472 603.987 472 576.98 480.021 555.402C492.991 520.509 520.509 492.991 555.402 480.021C576.98 472 603.987 472 658 472C712.013 472 739.02 472 760.598 480.021C795.491 492.991 823.009 520.509 835.979 555.402C844 576.98 844 603.987 844 658C844 712.013 844 739.02 835.979 760.598C823.009 795.491 795.491 823.009 760.598 835.979C739.02 844 712.013 844 658 844C603.987 844 576.98 844 555.402 835.979C520.509 823.009 492.991 795.491 480.021 760.598C472 739.02 472 712.013 472 658Z" fill="url(#paint3_linear_482_2)" shape-rendering="crispEdges"/>
</g>
<defs>
<filter id="filter0_dii_482_2" x="90" y="97" width="844" height="847" filterUnits="userSpaceOnUse" color-interpolation-filters="sRGB">
<feFlood flood-opacity="0" result="BackgroundImageFix"/>
<feColorMatrix in="SourceAlpha" type="matrix" values="0 0 0 0 0 0 0 0 0 0 0 0 0 0 0 0 0 0 127 0" result="hardAlpha"/>
<feOffset dy="10"/>
<feGaussianBlur stdDeviation="5"/>
<feColorMatrix type="matrix" values="0 0 0 0 0 0 0 0 0 0 0 0 0 0 0 0 0 0 0.3 0"/>
<feBlend mode="normal" in2="BackgroundImageFix" result="effect1_dropShadow_482_2"/>
<feBlend mode="normal" in="SourceGraphic" in2="effect1_dropShadow_482_2" result="shape"/>
<feColorMatrix in="SourceAlpha" type="matrix" values="0 0 0 0 0 0 0 0 0 0 0 0 0 0 0 0 0 0 127 0" result="hardAlpha"/>
<feOffset dy="4"/>
<feGaussianBlur stdDeviation="1"/>
<feComposite in2="hardAlpha" operator="arithmetic" k2="-1" k3="1"/>
<feColorMatrix type="matrix" values="0 0 0 0 1 0 0 0 0 1 0 0 0 0 1 0 0 0 0.21 0"/>
<feBlend mode="normal" in2="shape" result="effect2_innerShadow_482_2"/>
<feColorMatrix in="SourceAlpha" type="matrix" values="0 0 0 0 0 0 0 0 0 0 0 0 0 0 0 0 0 0 127 0" result="hardAlpha"/>
<feOffset dy="-3"/>
<feGaussianBlur stdDeviation="2"/>
<feComposite in2="hardAlpha" operator="arithmetic" k2="-1" k3="1"/>
<feColorMatrix type="matrix" values="0 0 0 0 0 0 0 0 0 0 0 0 0 0 0 0 0 0 0.25 0"/>
<feBlend mode="normal" in2="effect2_innerShadow_482_2" result="effect3_innerShadow_482_2"/>
</filter>
<filter id="filter1_dii_482_2" x="140" y="154" width="756" height="756" filterUnits="userSpaceOnUse" color-interpolation-filters="sRGB">
<feFlood flood-opacity="0" result="BackgroundImageFix"/>
<feColorMatrix in="SourceAlpha" type="matrix" values="0 0 0 0 0 0 0 0 0 0 0 0 0 0 0 0 0 0 127 0" result="hardAlpha"/>
<feOffset dy="14"/>
<feGaussianBlur stdDeviation="26"/>
<feComposite in2="hardAlpha" operator="out"/>
<feColorMatrix type="matrix" values="0 0 0 0 0.137083 0 0 0 0 0.250471 0 0 0 0 0.562917 0 0 0 0.49 0"/>
<feBlend mode="normal" in2="BackgroundImageFix" result="effect1_dropShadow_482_2"/>
<feBlend mode="normal" in="SourceGraphic" in2="effect1_dropShadow_482_2" result="shape"/>
<feColorMatrix in="SourceAlpha" type="matrix" values="0 0 0 0 0 0 0 0 0 0 0 0 0 0 0 0 0 0 127 0" result="hardAlpha"/>
<feOffset dy="-4"/>
<feGaussianBlur stdDeviation="5"/>
<feComposite in2="hardAlpha" operator="arithmetic" k2="-1" k3="1"/>
<feColorMatrix type="matrix" values="0 0 0 0 1 0 0 0 0 1 0 0 0 0 1 0 0 0 0.25 0"/>
<feBlend mode="normal" in2="shape" result="effect2_innerShadow_482_2"/>
<feColorMatrix in="SourceAlpha" type="matrix" values="0 0 0 0 0 0 0 0 0 0 0 0 0 0 0 0 0 0 127 0" result="hardAlpha"/>
<feOffset dy="4"/>
<feGaussianBlur stdDeviation="5.5"/>
<feComposite in2="hardAlpha" operator="arithmetic" k2="-1" k3="1"/>
<feColorMatrix type="matrix" values="0 0 0 0 1 0 0 0 0 1 0 0 0 0 1 0 0 0 0.32 0"/>
<feBlend mode="normal" in2="effect2_innerShadow_482_2" result="effect3_innerShadow_482_2"/>
</filter>
<filter id="filter2_di_482_2" x="296" y="300" width="584" height="584" filterUnits="userSpaceOnUse" color-interpolation-filters="sRGB">
<feFlood flood-opacity="0" result="BackgroundImageFix"/>
<feColorMatrix in="SourceAlpha" type="matrix" values="0 0 0 0 0 0 0 0 0 0 0 0 0 0 0 0 0 0 127 0" result="hardAlpha"/>
<feOffset dy="4"/>
<feGaussianBlur stdDeviation="18"/>
<feComposite in2="hardAlpha" operator="out"/>
<feColorMatrix type="matrix" values="0 0 0 0 0.137083 0 0 0 0 0.250471 0 0 0 0 0.562917 0 0 0 0.29 0"/>
<feBlend mode="normal" in2="BackgroundImageFix" result="effect1_dropShadow_482_2"/>
<feBlend mode="normal" in="SourceGraphic" in2="effect1_dropShadow_482_2" result="shape"/>
<feColorMatrix in="SourceAlpha" type="matrix" values="0 0 0 0 0 0 0 0 0 0 0 0 0 0 0 0 0 0 127 0" result="hardAlpha"/>
<feOffset dy="-4"/>
<feGaussianBlur stdDeviation="5"/>
<feComposite in2="hardAlpha" operator="arithmetic" k2="-1" k3="1"/>
<feColorMatrix type="matrix" values="0 0 0 0 1 0 0 0 0 1 0 0 0 0 1 0 0 0 0.25 0"/>
<feBlend mode="normal" in2="shape" result="effect2_innerShadow_482_2"/>
</filter>
<filter id="filter3_di_482_2" x="436" y="440" width="444" height="444" filterUnits="userSpaceOnUse" color-interpolation-filters="sRGB">
<feFlood flood-opacity="0" result="BackgroundImageFix"/>
<feColorMatrix in="SourceAlpha" type="matrix" values="0 0 0 0 0 0 0 0 0 0 0 0 0 0 0 0 0 0 127 0" result="hardAlpha"/>
<feOffset dy="4"/>
<feGaussianBlur stdDeviation="18"/>
<feComposite in2="hardAlpha" operator="out"/>
<feColorMatrix type="matrix" values="0 0 0 0 0.137083 0 0 0 0 0.250471 0 0 0 0 0.562917 0 0 0 0.29 0"/>
<feBlend mode="normal" in2="BackgroundImageFix" result="effect1_dropShadow_482_2"/>
<feBlend mode="normal" in="SourceGraphic" in2="effect1_dropShadow_482_2" result="shape"/>
<feColorMatrix in="SourceAlpha" type="matrix" values="0 0 0 0 0 0 0 0 0 0 0 0 0 0 0 0 0 0 127 0" result="hardAlpha"/>
<feOffset dy="-4"/>
<feGaussianBlur stdDeviation="5"/>
<feComposite in2="hardAlpha" operator="arithmetic" k2="-1" k3="1"/>
<feColorMatrix type="matrix" values="0 0 0 0 1 0 0 0 0 1 0 0 0 0 1 0 0 0 0.25 0"/>
<feBlend mode="normal" in2="shape" result="effect2_innerShadow_482_2"/>
</filter>
<linearGradient id="paint0_linear_482_2" x1="100" y1="100" x2="924" y2="924" gradientUnits="userSpaceOnUse">
<stop stop-color="#7248EA"/>
<stop offset="1" stop-color="#5421E5"/>
</linearGradient>
<linearGradient id="paint1_linear_482_2" x1="192" y1="192" x2="844" y2="844" gradientUnits="userSpaceOnUse">
<stop stop-color="white"/>
<stop offset="0.227654" stop-color="white" stop-opacity="0.910519"/>
<stop offset="0.621508" stop-color="white" stop-opacity="0.47"/>
<stop offset="1" stop-color="#BEBEBE" stop-opacity="0"/>
</linearGradient>
<linearGradient id="paint2_linear_482_2" x1="332" y1="332" x2="844" y2="844" gradientUnits="userSpaceOnUse">
<stop stop-color="white"/>
<stop offset="0.227654" stop-color="white" stop-opacity="0.910519"/>
<stop offset="0.621508" stop-color="white" stop-opacity="0.47"/>
<stop offset="1" stop-color="#BEBEBE" stop-opacity="0"/>
</linearGradient>
<linearGradient id="paint3_linear_482_2" x1="472" y1="472" x2="844" y2="844" gradientUnits="userSpaceOnUse">
<stop stop-color="white"/>
<stop offset="0.227654" stop-color="white" stop-opacity="0.910519"/>
<stop offset="0.621508" stop-color="white" stop-opacity="0.47"/>
<stop offset="1" stop-color="#BEBEBE" stop-opacity="0"/>
</linearGradient>
</defs>
</svg>
