<?xml version="1.0" encoding="UTF-8"?>
<svg width="16px" height="16px" viewBox="0 0 16 16" version="1.1" xmlns="http://www.w3.org/2000/svg" xmlns:xlink="http://www.w3.org/1999/xlink">
    <!-- Generator: Sketch 58 (84663) - https://sketch.com -->
    <title>icon</title>
    <desc>Created with Sketch.</desc>
    <g id="Page-1" stroke="none" stroke-width="1" fill="none" fill-rule="evenodd">
        <g id="MVP-Copy" transform="translate(-336.000000, -208.000000)" fill="#5784FF">
            <g id="app" transform="translate(320.000000, 160.000000)">
                <g id="Group-9" transform="translate(16.000000, 48.000000)">
                    <path d="M8,0 C12.418278,0 16,3.581722 16,8 C16,12.418278 12.418278,16 8,16 C3.581722,16 0,12.418278 0,8 C0,3.581722 3.581722,0 8,0 Z M10.5316022,4.78557522 L6.6748765,9.38184188 L5.14278761,8.09626666 C4.71971295,7.74126486 4.08895735,7.79644883 3.73395556,8.21952349 C3.37895376,8.64259816 3.43413773,9.27335375 3.85721239,9.62835554 L6.15534572,11.5567184 C6.57842038,11.9117202 7.20917598,11.8565362 7.56417777,11.4334615 L12.063691,6.07115044 C12.4186928,5.64807578 12.3635089,5.01732018 11.9404342,4.66231839 C11.5173595,4.30731659 10.8866039,4.36250056 10.5316022,4.78557522 Z" id="icon"></path>
                </g>
            </g>
        </g>
    </g>
</svg>